<?xml version="1.0" standalone="no"?>
<!DOCTYPE svg PUBLIC "-//W3C//DTD SVG 20010904//EN"
 "http://www.w3.org/TR/2001/REC-SVG-20010904/DTD/svg10.dtd">
<!-- <svg version="1.0" xmlns="http://www.w3.org/2000/svg"
 width="1228.000000pt" height="503.000000pt" viewBox="0 0 1228.000000 503.000000"
 preserveAspectRatio="xMidYMid meet"> -->

<svg version="1.0" xmlns="http://www.w3.org/2000/svg"
 viewBox="0 0 1228.000000 503.000000"
 preserveAspectRatio="xMidYMid meet">

<g transform="translate(0.000000,503.000000) scale(0.100000,-0.100000)"
fill="#000000" stroke="none">
<path d="M3480 5014 c-47 -7 -150 -13 -229 -13 -150 -1 -305 -19 -431 -51 -41
-10 -145 -31 -230 -45 -190 -33 -396 -83 -555 -135 -66 -21 -168 -52 -227 -69
-329 -94 -911 -386 -1116 -560 -127 -107 -349 -330 -431 -431 -94 -117 -138
-191 -147 -250 -4 -25 -21 -74 -39 -110 -18 -36 -43 -93 -55 -128 -23 -62 -23
-65 -7 -116 38 -119 132 -222 214 -233 87 -11 283 80 291 136 2 12 -13 64 -32
115 -20 50 -36 99 -36 107 0 8 9 42 21 74 17 48 20 73 15 125 l-6 65 58 77
c31 42 67 103 80 135 20 52 39 73 173 198 328 305 301 285 554 405 176 84 371
165 567 237 167 61 621 172 788 193 52 6 129 20 170 31 95 25 346 52 370 39
23 -12 29 -57 40 -270 5 -96 12 -205 16 -243 6 -57 3 -78 -18 -140 -56 -161
-58 -173 -32 -222 16 -31 17 -56 9 -315 -9 -306 -15 -360 -46 -421 -16 -33
-17 -46 -8 -125 16 -136 -16 -639 -43 -671 -32 -39 -70 -48 -200 -45 -110 1
-139 -2 -215 -24 -48 -14 -109 -37 -135 -51 -39 -21 -48 -31 -48 -53 0 -21 7
-30 28 -38 52 -21 154 -24 237 -9 109 20 663 8 873 -19 124 -15 159 -16 259
-6 175 17 204 51 91 104 -69 33 -86 36 -257 48 -180 12 -223 29 -260 104 -21
41 -26 68 -29 162 -4 97 -1 121 18 180 20 60 22 79 16 175 -4 65 -2 127 5 157
7 36 7 78 0 145 -10 86 -9 100 8 140 11 25 25 48 31 52 7 4 95 10 197 12 166
4 191 3 253 -16 83 -26 160 -83 207 -156 75 -117 126 -176 180 -214 73 -49 99
-78 160 -172 68 -107 286 -344 426 -461 64 -54 117 -104 117 -111 0 -17 108
-154 242 -309 64 -73 140 -165 169 -203 69 -93 136 -162 179 -186 19 -10 96
-63 170 -118 74 -55 243 -171 375 -257 132 -86 257 -169 277 -185 21 -17 121
-69 222 -118 102 -48 196 -95 208 -103 53 -35 133 -70 283 -123 249 -87 294
-106 323 -129 75 -62 269 -142 484 -201 48 -14 104 -33 125 -43 56 -29 204
-78 323 -107 58 -14 139 -37 180 -50 41 -13 113 -31 160 -40 47 -9 137 -30
200 -45 63 -16 156 -32 205 -35 50 -4 137 -15 195 -26 96 -17 145 -18 560 -15
l455 4 194 41 c107 22 246 45 310 51 164 14 438 78 610 141 117 43 157 63 208
104 34 27 110 77 169 110 127 72 179 116 233 195 85 128 106 232 89 434 -9
105 -16 144 -30 161 -20 26 -96 55 -142 55 -41 0 -232 -44 -279 -64 -53 -21
-55 -39 -13 -79 23 -23 36 -43 36 -60 0 -15 10 -70 22 -124 18 -83 20 -107 11
-159 -32 -186 -160 -314 -402 -399 -36 -13 -105 -37 -152 -54 -182 -65 -379
-112 -499 -121 -63 -4 -171 -19 -240 -33 -240 -49 -764 -61 -1013 -22 -54 8
-156 28 -226 45 -71 16 -143 30 -160 30 -17 0 -50 4 -73 10 -24 5 -92 16 -151
25 -182 27 -559 143 -1112 343 -121 43 -232 82 -246 85 -15 4 -65 31 -111 60
-47 29 -139 77 -204 106 -302 135 -378 179 -554 325 -58 48 -150 113 -205 144
-55 31 -115 71 -134 89 -19 19 -59 47 -88 64 -34 20 -81 62 -128 117 -51 59
-111 113 -192 172 -96 69 -133 105 -198 185 -44 55 -150 172 -235 260 -85 88
-290 309 -455 490 -362 399 -521 571 -634 688 l-85 89 50 17 c27 10 67 29 89
43 22 13 62 35 89 48 28 13 91 64 148 119 85 81 107 108 144 183 30 60 44 100
44 127 0 22 5 84 11 138 10 93 9 105 -20 231 -32 146 -43 169 -99 210 -21 15
-55 46 -76 70 -78 86 -263 188 -430 236 -61 18 -133 29 -228 36 -77 6 -227 19
-334 30 -106 11 -195 19 -196 19 -2 -1 -41 -7 -88 -15z m527 -205 c40 -10 135
-44 210 -76 131 -55 142 -62 213 -133 93 -92 118 -142 130 -254 5 -46 14 -95
20 -107 8 -14 11 -52 8 -103 -6 -112 -53 -209 -150 -312 -125 -131 -228 -179
-433 -199 -144 -14 -365 -6 -424 15 l-34 13 6 186 c4 102 10 348 13 545 7 337
6 360 -11 372 -30 22 -10 40 67 62 63 19 90 21 193 16 66 -4 153 -15 192 -25z"/>
<path d="M5955 3725 c-5 -2 -22 -6 -36 -9 -39 -8 -79 -89 -86 -174 -5 -64 -4
-69 24 -99 35 -37 103 -59 133 -43 26 14 40 41 61 117 17 64 14 106 -10 168
-17 41 -44 54 -86 40z"/>
<path d="M9420 3717 c-50 -17 -89 -97 -91 -186 -2 -63 -1 -66 35 -97 45 -39
91 -50 122 -29 29 19 43 45 60 110 19 70 17 113 -9 165 -18 37 -27 45 -52 47
-16 1 -46 -3 -65 -10z"/>
<path d="M6746 3189 c-26 -23 -47 -52 -51 -69 -4 -17 -17 -43 -30 -58 -40 -47
-40 -71 0 -132 31 -49 35 -61 35 -123 0 -54 -4 -74 -20 -94 -11 -14 -20 -34
-20 -44 0 -21 -96 -123 -109 -115 -11 7 -29 99 -37 191 -4 53 -20 119 -46 195
-22 63 -43 145 -48 183 -9 76 -21 97 -57 97 -25 0 -123 -64 -123 -80 0 -4 -19
-20 -42 -34 -73 -43 -150 -121 -146 -148 4 -29 50 -36 92 -14 44 22 126 -11
126 -52 0 -8 13 -58 28 -111 55 -184 63 -235 65 -431 l2 -185 38 1 c53 2 84
28 135 111 23 39 81 113 127 165 47 51 85 98 85 104 0 6 8 22 19 35 18 24 60
97 110 194 25 48 26 57 23 184 -3 140 -8 161 -59 228 -13 17 -30 34 -38 37 -7
2 -34 -13 -59 -35z"/>
<path d="M8916 3190 c-25 -23 -50 -58 -57 -78 -7 -20 -22 -50 -35 -65 -31 -37
-30 -53 8 -113 26 -40 33 -62 36 -117 4 -59 1 -73 -17 -98 -11 -15 -21 -37
-21 -48 0 -21 -97 -124 -110 -116 -12 7 -29 91 -36 180 -4 52 -21 127 -49 215
-24 74 -46 159 -49 189 -6 62 -19 81 -53 81 -27 0 -94 -43 -132 -84 -31 -33
-38 -33 -46 3 -3 15 -15 38 -27 51 -18 20 -28 22 -76 17 -30 -3 -62 -13 -73
-23 -10 -9 -45 -64 -76 -122 -61 -111 -92 -143 -118 -122 -11 9 -14 32 -11
104 2 50 -1 99 -6 109 -14 26 -84 67 -116 67 -39 0 -72 -28 -112 -92 -18 -29
-69 -87 -112 -129 -83 -79 -83 -80 -62 -146 7 -24 44 -13 84 23 40 36 111 57
124 36 3 -5 10 -41 16 -78 8 -58 6 -85 -11 -169 -12 -55 -32 -122 -46 -150
-29 -59 -63 -194 -63 -251 0 -27 8 -53 23 -75 21 -30 28 -34 66 -32 23 1 59
10 79 20 46 22 57 57 72 226 13 143 19 164 58 214 17 22 32 56 36 81 9 60 46
129 94 176 42 40 70 47 122 32 19 -5 35 0 65 20 23 15 53 27 69 26 35 -1 80
-32 84 -58 2 -10 16 -64 31 -119 53 -187 62 -236 61 -350 0 -148 -1 -196 -3
-224 -3 -37 25 -48 75 -31 37 13 51 27 103 106 33 50 94 129 135 177 88 100
118 146 185 281 l50 99 -3 131 c-3 129 -3 132 -36 186 -19 30 -43 61 -54 68
-19 12 -25 10 -66 -28z"/>
<path d="M5810 3176 c-36 -24 -91 -67 -123 -96 -55 -50 -57 -54 -57 -102 l0
-50 62 4 c59 3 63 2 75 -24 12 -23 10 -38 -16 -120 -32 -103 -37 -128 -51
-273 -5 -55 -12 -112 -16 -126 -3 -15 -1 -30 5 -33 6 -4 11 -27 11 -51 0 -35
6 -52 31 -80 46 -52 85 -49 136 9 21 24 54 70 73 102 19 33 65 88 102 122 48
45 68 71 68 88 0 22 -4 24 -43 24 -34 0 -49 -6 -67 -25 -34 -36 -70 -30 -94
16 -20 36 -20 36 3 90 32 77 51 202 56 373 5 143 4 151 -17 173 -31 34 -65 28
-138 -21z"/>
<path d="M9298 3171 c-40 -27 -97 -73 -126 -102 -49 -48 -53 -55 -50 -93 l3
-41 56 0 c62 0 89 -15 89 -51 0 -13 -14 -66 -30 -118 -21 -65 -33 -131 -41
-217 -18 -209 -11 -284 31 -329 58 -62 116 -32 196 102 20 35 70 95 111 134
l74 70 -1 -70 c-2 -188 41 -266 145 -266 44 0 56 6 153 79 130 98 192 175 192
237 0 41 -54 32 -136 -21 -38 -24 -79 -45 -91 -45 -36 0 -53 46 -53 140 0 123
24 155 176 237 50 28 102 57 115 66 13 9 36 17 50 17 15 0 40 7 56 17 36 20
80 11 92 -20 24 -60 36 -496 17 -619 -9 -56 -8 -56 22 -72 87 -45 121 -10 251
264 32 68 99 142 125 138 20 -3 21 -9 22 -93 0 -50 4 -103 8 -119 4 -16 2 -62
-5 -103 -14 -87 -7 -101 59 -110 66 -9 118 24 249 158 63 65 155 170 204 235
81 107 91 125 129 238 51 155 53 205 8 272 -40 59 -119 104 -182 104 -38 0
-53 -9 -142 -80 -54 -44 -107 -80 -118 -80 -17 0 -18 5 -12 54 3 30 8 61 12
69 3 8 -3 22 -12 32 -22 21 -65 14 -114 -20 -20 -14 -42 -25 -49 -25 -7 0 -24
-9 -38 -20 -14 -11 -33 -20 -43 -20 -28 0 -71 -40 -68 -63 3 -21 15 -29 62
-43 29 -9 30 -11 32 -77 3 -92 -6 -116 -72 -203 -48 -63 -62 -74 -83 -72 -23
3 -25 7 -27 53 0 28 -6 69 -12 92 -7 23 -16 119 -20 212 -7 144 -12 174 -27
191 -34 38 -71 22 -175 -75 -59 -55 -96 -80 -103 -68 -2 5 -7 24 -11 44 -13
74 -74 119 -159 119 -96 0 -282 -130 -316 -220 -7 -19 -24 -62 -37 -95 -13
-33 -33 -121 -45 -196 l-22 -136 -46 5 c-40 3 -49 0 -70 -22 -31 -33 -64 -33
-90 0 -26 33 -26 58 -2 120 31 81 69 354 54 393 -5 15 -6 36 -2 46 14 37 9 66
-16 90 -35 36 -64 31 -147 -24z m713 -131 c31 -17 26 -82 -10 -112 -37 -32
-86 -52 -107 -44 -20 8 -12 51 22 119 26 50 51 60 95 37z m1102 -84 c26 -10
39 -27 61 -76 24 -54 27 -69 21 -119 -4 -31 -15 -75 -25 -98 -23 -53 -91 -126
-136 -148 -59 -28 -72 -3 -78 145 -2 41 -7 108 -11 147 l-8 73 45 45 c49 49
75 55 131 31z"/>
<path d="M7251 3174 c-80 -40 -169 -116 -193 -166 -32 -65 -79 -199 -82 -236
-2 -20 -11 -82 -19 -137 -26 -163 -21 -324 11 -382 30 -55 124 -82 178 -50 51
30 185 140 222 182 43 48 68 105 58 130 -12 32 -77 14 -159 -46 -22 -16 -50
-29 -63 -29 -48 0 -73 79 -59 186 9 78 54 124 187 195 56 30 124 75 150 100
47 44 48 47 48 105 0 166 -118 229 -279 148z m91 -141 c39 -36 15 -99 -52
-133 -77 -39 -96 -21 -66 62 31 85 74 111 118 71z"/>
<path d="M4912 2075 c-51 -22 -99 -63 -152 -131 -66 -82 -86 -130 -105 -249
-9 -54 -18 -101 -20 -105 -2 -3 -11 -87 -20 -185 -9 -99 -21 -196 -26 -215 -6
-19 -9 -69 -7 -110 l3 -75 36 2 c66 4 142 40 207 100 34 32 81 73 103 92 46
39 76 88 61 103 -13 13 -52 -5 -144 -67 -127 -86 -137 -77 -103 90 7 39 19
104 25 145 23 142 41 225 61 269 10 24 19 50 19 58 0 29 30 71 60 83 18 7 49
10 78 7 88 -11 172 51 172 127 0 61 -25 76 -127 76 -53 -1 -101 -6 -121 -15z"/>
<path d="M9855 1901 c-65 -14 -102 -133 -52 -166 45 -29 83 -30 111 -2 43 43
44 141 2 169 -12 9 -18 8 -61 -1z"/>
<path d="M8230 1729 c-15 -6 -53 -8 -96 -4 -81 8 -96 -1 -113 -62 -6 -20 -19
-45 -30 -57 -11 -12 -35 -50 -54 -86 -76 -145 -119 -226 -129 -237 -23 -28
-15 -43 -155 322 -29 74 -45 103 -63 112 -30 15 -136 17 -145 3 -3 -5 -31 -10
-61 -10 -46 0 -54 -3 -54 -19 0 -12 14 -26 38 -38 25 -13 44 -34 61 -66 21
-43 22 -52 12 -90 -7 -23 -16 -76 -21 -117 -23 -188 -39 -250 -72 -278 -8 -6
-50 -15 -92 -19 -50 -4 -85 -12 -98 -23 -36 -29 -14 -40 80 -40 48 0 133 -5
189 -12 79 -9 108 -9 128 0 36 17 28 41 -19 57 -59 21 -62 26 -48 105 7 39 12
92 12 118 0 46 31 132 47 132 15 0 43 -57 43 -87 0 -15 17 -64 39 -108 21 -44
45 -100 52 -125 19 -63 46 -65 91 -8 19 24 40 56 46 71 12 27 57 84 144 181
49 55 60 43 69 -81 4 -54 10 -107 14 -119 11 -36 -18 -54 -90 -54 -53 0 -66
-3 -75 -19 -27 -51 -28 -51 228 -51 185 0 242 3 257 14 23 17 14 44 -17 50
-136 30 -132 29 -138 66 -4 20 -10 42 -15 50 -13 21 -26 125 -31 260 -6 139
-2 148 76 157 94 10 133 48 97 96 -15 22 -74 30 -107 16z"/>
<path d="M3067 1704 c-3 -3 -104 -7 -224 -8 -216 -1 -218 -1 -221 -23 -5 -33
31 -63 76 -63 64 0 66 -4 57 -127 -8 -97 -10 -216 -6 -312 2 -45 -8 -54 -81
-75 -35 -10 -69 -19 -75 -22 -21 -6 -15 -32 10 -48 18 -11 48 -12 167 -4 206
13 290 14 332 4 35 -7 40 -6 68 25 17 19 42 46 57 61 29 29 26 58 -6 58 -10 0
-48 -9 -83 -20 -84 -26 -198 -27 -221 -2 -22 24 -34 127 -17 147 17 21 112 20
171 -1 66 -24 79 -16 79 49 0 69 -17 87 -63 68 -18 -8 -59 -17 -92 -21 -88
-10 -99 2 -93 102 6 106 21 122 105 115 40 -3 85 -16 129 -36 104 -49 135 -39
90 29 -14 22 -26 46 -26 55 0 30 -38 55 -83 55 -24 0 -46 -3 -50 -6z"/>
<path d="M3765 1610 c-27 -3 -61 -12 -75 -18 -14 -6 -50 -18 -80 -26 -46 -13
-69 -28 -132 -88 -42 -40 -81 -82 -86 -93 -30 -59 -44 -262 -23 -319 6 -14 21
-32 34 -41 39 -25 72 -5 179 108 116 121 130 121 110 7 -16 -93 -15 -135 2
-149 20 -17 46 -1 80 48 16 22 52 59 81 81 61 47 112 117 97 132 -10 10 -72
-28 -99 -60 -11 -13 -15 -13 -29 -1 -25 21 -13 151 25 259 36 101 39 145 12
160 -11 5 -26 9 -33 9 -7 -1 -35 -5 -63 -9z m-85 -135 c21 -25 4 -82 -48 -158
-78 -116 -134 -129 -140 -33 -4 57 16 93 88 160 51 48 79 57 100 31z"/>
<path d="M9470 1613 c-8 -3 -33 -20 -54 -37 -22 -16 -53 -38 -70 -47 -41 -21
-89 -91 -89 -128 0 -20 15 -49 50 -93 80 -103 90 -131 53 -168 -24 -24 -66
-26 -120 -4 -50 20 -74 14 -128 -31 -45 -39 -56 -79 -24 -89 9 -3 69 -2 132 2
94 7 127 14 178 37 85 38 132 91 132 148 -1 55 -18 100 -63 166 -61 88 -48
125 53 151 93 23 110 31 110 50 0 30 -39 50 -95 49 -27 0 -57 -3 -65 -6z"/>
<path d="M4106 1556 c-28 -30 -70 -66 -93 -80 -46 -28 -51 -41 -29 -71 13 -18
15 -17 60 9 62 36 88 32 100 -16 12 -46 -9 -148 -38 -191 -12 -18 -30 -59 -39
-92 -16 -58 -16 -61 1 -85 21 -28 48 -35 98 -25 44 8 62 42 70 134 4 42 14 82
25 98 33 49 37 57 60 106 28 63 84 102 133 93 93 -18 162 99 95 160 -16 14
-27 16 -66 8 -39 -7 -53 -16 -81 -54 -92 -123 -117 -130 -117 -36 0 55 -2 61
-30 78 -16 10 -45 18 -64 18 -29 0 -43 -9 -85 -54z"/>
<path d="M8982 1602 c-6 -5 -19 -35 -28 -68 -16 -64 -89 -207 -135 -265 -33
-42 -109 -85 -132 -76 -30 11 -20 78 34 232 28 80 48 152 45 160 -3 10 -19 15
-45 15 -31 0 -53 -10 -112 -55 -41 -30 -98 -69 -127 -86 -41 -24 -52 -36 -50
-53 3 -23 27 -26 101 -11 35 7 37 6 37 -19 0 -15 -7 -41 -16 -58 -26 -51 -43
-119 -50 -201 -6 -66 -4 -80 11 -97 10 -11 27 -20 37 -20 24 0 114 61 191 129
82 72 106 66 72 -17 -26 -62 0 -112 58 -112 18 0 44 8 58 18 67 43 139 104
178 148 39 44 41 49 25 61 -15 11 -23 9 -48 -8 -50 -33 -74 -42 -92 -35 -26
10 -11 68 40 156 69 119 99 249 60 264 -22 9 -97 7 -112 -2z"/>
<path d="M9751 1582 c-87 -46 -123 -80 -119 -110 3 -25 6 -27 44 -24 64 5 72
-14 41 -92 -29 -70 -50 -208 -40 -259 11 -63 63 -94 114 -67 10 6 37 34 60 62
22 28 64 68 93 88 l54 38 4 -74 c6 -126 54 -158 171 -114 106 40 202 117 221
178 7 20 4 22 -24 22 -18 0 -49 -12 -73 -29 -23 -15 -57 -36 -76 -46 -35 -17
-35 -17 -57 9 -32 36 -40 89 -20 118 9 12 16 29 16 38 0 32 21 87 40 108 18
19 31 22 104 22 70 0 88 3 110 21 22 17 27 28 24 58 -2 30 -9 39 -38 54 -53
28 -170 18 -246 -20 -55 -27 -59 -31 -85 -98 -34 -88 -69 -198 -69 -217 0 -11
-9 -13 -31 -10 -18 3 -44 -3 -63 -13 -56 -30 -91 1 -66 59 20 48 49 219 40
236 -5 9 -4 23 0 31 14 24 -16 59 -48 59 -15 0 -51 -13 -81 -28z"/>
<path d="M5605 1553 c-14 -15 -32 -48 -40 -73 -11 -32 -29 -58 -60 -83 -28
-24 -55 -60 -74 -101 -41 -85 -53 -94 -80 -60 -12 15 -20 33 -17 41 14 35 -69
207 -121 254 -55 48 -100 35 -203 -59 -57 -53 -63 -61 -51 -76 11 -14 25 -15
72 -10 49 5 63 3 94 -16 52 -32 85 -81 107 -158 22 -77 21 -69 12 -147 -10
-83 -29 -116 -136 -229 -78 -84 -104 -105 -165 -133 -45 -21 -103 -38 -151
-45 -77 -10 -81 -10 -169 21 -80 29 -94 31 -130 22 -49 -14 -93 -52 -93 -83 0
-52 12 -68 74 -98 50 -25 66 -29 92 -21 20 6 46 5 72 -2 69 -18 207 24 322 98
36 24 83 52 105 63 58 29 252 238 290 312 20 39 123 201 154 240 10 14 26 41
34 60 23 52 47 74 94 88 46 14 46 14 64 119 10 58 10 75 -1 88 -20 24 -66 18
-95 -12z"/>
</g>
</svg>
